<svg width="14" height="15" viewBox="0 0 14 15" fill="none" xmlns="http://www.w3.org/2000/svg">
<mask id="mask0_527_1901" style="mask-type:luminance" maskUnits="userSpaceOnUse" x="0" y="1" width="14" height="13">
<path d="M7.00033 13.3332C7.76651 13.3341 8.52533 13.1837 9.23319 12.8904C9.94104 12.5972 10.584 12.167 11.1251 11.6246C11.6675 11.0835 12.0977 10.4406 12.3909 9.7327C12.6842 9.02484 12.8346 8.26602 12.8337 7.49984C12.8346 6.73366 12.6842 5.97484 12.3909 5.26698C12.0977 4.55913 11.6675 3.91618 11.1251 3.37509C10.584 2.83264 9.94104 2.40245 9.23319 2.10923C8.52533 1.81602 7.76651 1.66556 7.00033 1.66651C6.23415 1.66556 5.47533 1.81602 4.76747 2.10923C4.05962 2.40245 3.41667 2.83264 2.87558 3.37509C2.33313 3.91618 1.90294 4.55913 1.60972 5.26698C1.31651 5.97484 1.16605 6.73366 1.167 7.49984C1.16605 8.26602 1.31651 9.02484 1.60972 9.7327C1.90294 10.4406 2.33313 11.0835 2.87558 11.6246C3.41667 12.167 4.05962 12.5972 4.76747 12.8904C5.47533 13.1837 6.23415 13.3341 7.00033 13.3332Z" fill="white" stroke="white" stroke-linejoin="round"/>
<path d="M4.66699 7.5L6.41699 9.25L9.91699 5.75" stroke="black" stroke-linecap="round" stroke-linejoin="round"/>
</mask>
<g mask="url(#mask0_527_1901)">
<path d="M0 0.5H14V14.5H0V0.5Z" fill="#1E293B"/>
</g>
</svg>
