<svg width="74" height="74" viewBox="0 0 74 74" fill="none" xmlns="http://www.w3.org/2000/svg">
<path d="M56.2506 18.368L61.0783 13.047C61.2524 12.8854 61.3909 12.6893 61.4851 12.4712C61.5793 12.2531 61.627 12.0178 61.6252 11.7803C61.6234 11.5427 61.5722 11.3081 61.4748 11.0915C61.3774 10.8748 61.236 10.6808 61.0595 10.5218C60.883 10.3628 60.6754 10.2423 60.4497 10.168C60.2241 10.0936 59.9855 10.0671 59.7491 10.09C59.5126 10.113 59.2836 10.1849 59.0764 10.3012C58.8693 10.4176 58.6887 10.5758 58.5461 10.7657L53.7184 16.0639C48.3906 11.8716 41.6722 9.85376 34.9162 10.4168C28.1602 10.9799 21.8686 14.0821 17.3083 19.0986C12.7481 24.115 10.2581 30.6731 10.3398 37.4521C10.4216 44.231 13.0689 50.7271 17.7488 55.6322L12.9211 60.9532C12.6645 61.295 12.5451 61.7204 12.5864 62.1457C12.6277 62.5711 12.8266 62.9656 13.1441 63.2516C13.4616 63.5377 13.8747 63.6945 14.302 63.6914C14.7294 63.6882 15.14 63.5252 15.4533 63.2345L20.281 57.9249C25.6093 62.1001 32.32 64.1047 39.0654 63.5361C45.8108 62.9674 52.0913 59.8677 56.6454 54.8593C61.1996 49.851 63.6902 43.305 63.6169 36.5361C63.5437 29.7672 60.912 23.2766 56.2506 18.368ZM13.6169 37.0001C13.613 32.6155 14.843 28.3184 17.1663 24.5999C19.4895 20.8815 22.8123 17.8919 26.7547 15.9729C30.697 14.0539 35.0998 13.2831 39.4596 13.7485C43.8194 14.2139 47.9602 15.8968 51.4086 18.6047L20.0585 53.0915C15.9217 48.7558 13.6146 42.9927 13.6169 37.0001ZM36.9997 60.3829C31.7727 60.3866 26.6969 58.6297 22.5907 55.3955L53.9408 20.9087C57.0938 24.2216 59.2052 28.3869 60.0133 32.8884C60.8215 37.3899 60.2908 42.0295 58.4871 46.2323C56.6834 50.435 53.686 54.016 49.8665 56.5314C46.0469 59.0468 41.5731 60.386 36.9997 60.3829Z" fill="black"/>
</svg>
