<svg width="128" height="20" viewBox="0 0 128 20" fill="none" xmlns="http://www.w3.org/2000/svg">
<path d="M26.8673 8.20891V15.3811C26.8673 16.0864 27.0009 16.573 27.2679 16.841C27.5349 17.1089 28.0059 17.243 28.6807 17.243H30.0302V18.5124H28.4487C27.4084 18.5124 26.6353 18.2725 26.1292 17.793C25.6232 17.2993 25.3701 16.4954 25.3701 15.3811V8.20891H23.7676V6.96064H25.3701V4.06213H26.8673V6.96064H30.0302V8.20891H26.8673ZM42.5042 6.96064V18.5124H41.0281V16.4813C40.6908 17.2006 40.1707 17.7507 39.4678 18.1315C38.7648 18.5124 37.9777 18.7028 37.1061 18.7028C35.7284 18.7028 34.6039 18.2796 33.7323 17.4334C32.8607 16.573 32.425 15.3318 32.425 13.7097V6.96064H33.8799V13.5405C33.8799 14.7958 34.1891 15.7549 34.8077 16.4178C35.4403 17.0808 36.2977 17.4122 37.3802 17.4122C38.4907 17.4122 39.3763 17.0596 40.0371 16.3544C40.6978 15.6491 41.0281 14.6124 41.0281 13.2443V6.96064H42.5042ZM47.8588 8.20891V15.3811C47.8588 16.0864 47.9924 16.573 48.2594 16.841C48.5264 17.1089 48.9974 17.243 49.6722 17.243H51.0217V18.5124H49.4402C48.3999 18.5124 47.6268 18.2725 47.1207 17.793C46.6147 17.2993 46.3616 16.4954 46.3616 15.3811V8.20891H44.7591V6.96064H46.3616V4.06213H47.8588V6.96064H51.0217V8.20891H47.8588ZM58.5615 18.6816C57.479 18.6816 56.5021 18.4418 55.6305 17.9623C54.7731 17.4686 54.0912 16.7775 53.5851 15.8889C53.0931 14.9862 52.8471 13.9354 52.8471 12.7365C52.8471 11.5376 53.1002 10.4939 53.6062 9.60527C54.1123 8.70258 54.8011 8.01144 55.6727 7.53188C56.5443 7.03821 57.5212 6.79139 58.6037 6.79139C59.6862 6.79139 60.663 7.03821 61.5347 7.53188C62.4203 8.01144 63.109 8.70258 63.6011 9.60527C64.1072 10.4939 64.3602 11.5376 64.3602 12.7365C64.3602 13.9213 64.1072 14.9651 63.6011 15.8677C63.095 16.7704 62.3992 17.4686 61.5136 17.9623C60.628 18.4418 59.644 18.6816 58.5615 18.6816ZM58.5615 17.3911C59.3206 17.3911 60.0235 17.2218 60.6701 16.8833C61.3167 16.5307 61.8369 16.0088 62.2305 15.3177C62.6382 14.6124 62.842 13.752 62.842 12.7365C62.842 11.721 62.6451 10.8676 62.2516 10.1765C61.858 9.47127 61.3378 8.9494 60.6912 8.61089C60.0446 8.25828 59.3417 8.08196 58.5826 8.08196C57.8235 8.08196 57.1206 8.25828 56.474 8.61089C55.8274 8.9494 55.3071 9.47127 54.9136 10.1765C54.534 10.8676 54.3443 11.721 54.3443 12.7365C54.3443 13.752 54.534 14.6124 54.9136 15.3177C55.3071 16.0088 55.8203 16.5307 56.4529 16.8833C57.0995 17.2218 57.8024 17.3911 58.5615 17.3911ZM68.5928 9.01287C68.9162 8.29353 69.4081 7.73639 70.0688 7.34147C70.7436 6.94654 71.5659 6.74907 72.5359 6.74907V8.29353H72.1353C71.067 8.29353 70.2093 8.58268 69.5627 9.16097C68.9162 9.73927 68.5928 10.7054 68.5928 12.0595V18.5124H67.1167V6.96064H68.5928V9.01287ZM81.0427 18.5124L76.2983 13.3289V18.5124H74.8223V2.85618H76.2983V12.123L80.9373 6.96064H83.0037L77.5424 12.7154L83.0459 18.5124H81.0427ZM84.3447 12.7154C84.3447 11.5306 84.5766 10.4939 85.0405 9.60527C85.5184 8.70258 86.1721 8.01144 87.0016 7.53188C87.845 7.03821 88.7939 6.79139 89.8482 6.79139C90.9447 6.79139 91.8865 7.04527 92.6737 7.55304C93.475 8.06081 94.0514 8.70962 94.4028 9.49949V6.96064H95.8789V18.5124H94.4028V15.9524C94.0373 16.7423 93.4539 17.3982 92.6527 17.92C91.8654 18.4277 90.9236 18.6816 89.8271 18.6816C88.7868 18.6816 87.845 18.4349 87.0016 17.9411C86.1721 17.4474 85.5184 16.7492 85.0405 15.8466C84.5766 14.9439 84.3447 13.9001 84.3447 12.7154ZM94.4028 12.7365C94.4028 11.8056 94.213 10.9875 93.8335 10.2823C93.4539 9.57706 92.9339 9.03403 92.2731 8.6532C91.6265 8.27238 90.9096 8.08196 90.1223 8.08196C89.307 8.08196 88.5759 8.26532 87.9294 8.63205C87.2828 8.99877 86.7696 9.53474 86.39 10.24C86.0245 10.9311 85.8418 11.7562 85.8418 12.7154C85.8418 13.6604 86.0245 14.4925 86.39 15.2119C86.7696 15.9171 87.2828 16.4601 87.9294 16.841C88.5759 17.2077 89.307 17.3911 90.1223 17.3911C90.9096 17.3911 91.6265 17.2006 92.2731 16.8198C92.9339 16.439 93.4539 15.896 93.8335 15.1907C94.213 14.4855 94.4028 13.6674 94.4028 12.7365ZM113.02 6.74907C114.37 6.74907 115.466 7.17927 116.31 8.03965C117.167 8.88593 117.596 10.1201 117.596 11.7421V18.5124H116.141V11.9114C116.141 10.6561 115.839 9.69696 115.235 9.03403C114.63 8.3711 113.808 8.03965 112.767 8.03965C111.685 8.03965 110.82 8.39932 110.174 9.11866C109.527 9.838 109.204 10.8817 109.204 12.2499V18.5124H107.749V11.9114C107.749 10.6561 107.447 9.69696 106.842 9.03403C106.238 8.3711 105.408 8.03965 104.354 8.03965C103.272 8.03965 102.407 8.39932 101.76 9.11866C101.114 9.838 100.79 10.8817 100.79 12.2499V18.5124H99.3144V6.96064H100.79V8.9494C101.156 8.23006 101.676 7.68704 102.351 7.32031C103.026 6.93948 103.778 6.74907 104.607 6.74907C105.605 6.74907 106.477 6.98886 107.222 7.46841C107.981 7.94796 108.529 8.6532 108.866 9.58411C109.176 8.6673 109.703 7.96912 110.448 7.48957C111.207 6.9959 112.065 6.74907 113.02 6.74907ZM121.678 4.78147C121.383 4.78147 121.13 4.67568 120.919 4.46411C120.708 4.25254 120.603 3.9916 120.603 3.6813C120.603 3.37101 120.708 3.11712 120.919 2.91965C121.13 2.70808 121.383 2.60229 121.678 2.60229C121.973 2.60229 122.226 2.70808 122.437 2.91965C122.648 3.11712 122.754 3.37101 122.754 3.6813C122.754 3.9916 122.648 4.25254 122.437 4.46411C122.226 4.67568 121.973 4.78147 121.678 4.78147ZM122.416 6.96064V18.5124H120.94V6.96064H122.416ZM126.078 18.6182C125.768 18.6182 125.508 18.5124 125.297 18.3008C125.101 18.0892 125.002 17.8282 125.002 17.518C125.002 17.2077 125.101 16.9539 125.297 16.7563C125.508 16.5448 125.768 16.439 126.078 16.439C126.373 16.439 126.619 16.5448 126.816 16.7563C127.027 16.9539 127.132 17.2077 127.132 17.518C127.132 17.8282 127.027 18.0892 126.816 18.3008C126.619 18.5124 126.373 18.6182 126.078 18.6182Z" fill="#1E293B"/>
<path d="M7.56432 4.54009C8.06099 3.08174 10.0693 3.03757 10.6581 4.40757L10.7079 4.54091L11.3782 6.50757C11.5318 6.95862 11.78 7.37134 12.1061 7.71794C12.4322 8.06453 12.8286 8.33693 13.2685 8.51675L13.4487 8.58425L15.4088 9.25592C16.8623 9.75425 16.9062 11.7692 15.5417 12.3601L15.4088 12.4101L13.4487 13.0826C12.9991 13.2366 12.5876 13.4856 12.242 13.8128C11.8964 14.14 11.6248 14.5378 11.4455 14.9792L11.3782 15.1592L10.7088 17.1268C10.2121 18.585 8.20385 18.6293 7.61582 17.2601L7.56432 17.1268L6.8949 15.1601C6.7414 14.7089 6.49323 14.296 6.16713 13.9493C5.84104 13.6025 5.4446 13.33 5.00459 13.1501L4.82519 13.0826L2.86511 12.4109C1.41082 11.9126 1.3668 9.89757 2.73222 9.30757L2.86511 9.25592L4.82519 8.58425C5.27471 8.43014 5.68605 8.18108 6.03149 7.85389C6.37692 7.5267 6.64841 7.129 6.82764 6.68757L6.8949 6.50757L7.56432 4.54009ZM15.7809 1.66675C15.9363 1.66675 16.0885 1.71048 16.2204 1.79298C16.3522 1.87548 16.4584 1.99341 16.5267 2.13341L16.5666 2.23091L16.8573 3.08592L17.7103 3.37757C17.866 3.43067 18.0024 3.52893 18.1024 3.65992C18.2024 3.79093 18.2614 3.94876 18.2719 4.11343C18.2825 4.2781 18.2439 4.44219 18.1614 4.5849C18.0788 4.72762 17.9559 4.84253 17.8083 4.91508L17.7103 4.95508L16.8581 5.24675L16.5674 6.10258C16.5145 6.25876 16.4164 6.39566 16.2858 6.4959C16.1552 6.59615 15.9979 6.65524 15.8338 6.66569C15.6697 6.67612 15.5061 6.63746 15.364 6.55457C15.2218 6.47167 15.1073 6.3483 15.0351 6.20009L14.9952 6.10258L14.7045 5.24757L13.8515 4.95592C13.6958 4.90283 13.5593 4.80457 13.4593 4.67357C13.3593 4.54257 13.3004 4.38473 13.2899 4.22007C13.2794 4.05539 13.3178 3.89131 13.4004 3.7486C13.4829 3.60587 13.6058 3.49096 13.7535 3.41842L13.8515 3.37842L14.7037 3.08675L14.9944 2.23091C15.0504 2.06627 15.1563 1.92334 15.2974 1.82217C15.4384 1.721 15.6075 1.66665 15.7809 1.66675Z" fill="#1E293B"/>
</svg>
