<svg width="50" height="50" viewBox="0 0 50 50" fill="none" xmlns="http://www.w3.org/2000/svg">
<rect width="50" height="50" rx="25" fill="#282828"/>
<path d="M16.6311 15.1221C15.7376 14.6756 14.7486 15.5281 15.0581 16.4776L17.0651 22.6301C17.1219 22.8039 17.2252 22.9588 17.3639 23.078C17.5025 23.1972 17.6712 23.2761 17.8516 23.3061L25.7816 24.6276C26.1991 24.6976 26.1991 25.2976 25.7816 25.3676L17.8521 26.6891C17.6717 26.7191 17.503 26.798 17.3644 26.9172C17.2257 27.0363 17.1224 27.1913 17.0656 27.3651L15.0581 33.5211C14.7481 34.4711 15.7376 35.3236 16.6311 34.8771L34.3781 26.0061C35.2076 25.5911 35.2076 24.4076 34.3781 23.9931L16.6311 15.1221Z" fill="white"/>
</svg>
