<svg width="18" height="18" viewBox="0 0 18 18" fill="none" xmlns="http://www.w3.org/2000/svg">
<path d="M6.56432 3.54033C7.06099 2.08198 9.06925 2.03782 9.6581 3.40782L9.70794 3.54116L10.3782 5.50782C10.5318 5.95886 10.78 6.37159 11.1061 6.71818C11.4322 7.06478 11.8286 7.33717 12.2685 7.51699L12.4487 7.5845L14.4088 8.25617C15.8623 8.7545 15.9062 10.7695 14.5417 11.3603L14.4088 11.4103L12.4487 12.0828C11.9991 12.2368 11.5876 12.4859 11.242 12.813C10.8964 13.1402 10.6248 13.538 10.4455 13.9795L10.3782 14.1595L9.70878 16.1271C9.2121 17.5853 7.20385 17.6296 6.61582 16.2603L6.56432 16.1271L5.8949 14.1603C5.7414 13.7091 5.49323 13.2962 5.16713 12.9495C4.84104 12.6028 4.4446 12.3302 4.00459 12.1503L3.82519 12.0828L1.86511 11.4112C0.410822 10.9128 0.366802 8.89782 1.73222 8.30782L1.86511 8.25617L3.82519 7.5845C4.27471 7.43038 4.68605 7.18132 5.03149 6.85413C5.37692 6.52694 5.64841 6.12924 5.82764 5.68782L5.8949 5.50782L6.56432 3.54033ZM14.7809 0.666992C14.9363 0.666992 15.0885 0.710728 15.2204 0.793224C15.3522 0.87572 15.4584 0.993654 15.5267 1.13365L15.5666 1.23116L15.8573 2.08617L16.7103 2.37782C16.866 2.43091 17.0024 2.52917 17.1024 2.66017C17.2024 2.79117 17.2614 2.94901 17.2719 3.11367C17.2825 3.27835 17.2439 3.44243 17.1614 3.58514C17.0788 3.72787 16.9559 3.84278 16.8083 3.91532L16.7103 3.95532L15.8581 4.24699L15.5674 5.10283C15.5145 5.25901 15.4164 5.3959 15.2858 5.49615C15.1552 5.5964 14.9979 5.65549 14.8338 5.66593C14.6697 5.67636 14.5061 5.6377 14.364 5.55481C14.2218 5.47192 14.1073 5.34855 14.0351 5.20033L13.9952 5.10283L13.7045 4.24782L12.8515 3.95617C12.6958 3.90307 12.5593 3.80481 12.4593 3.67382C12.3593 3.54281 12.3004 3.38498 12.2899 3.22031C12.2794 3.05564 12.3178 2.89155 12.4004 2.74884C12.4829 2.60612 12.6058 2.49121 12.7535 2.41866L12.8515 2.37866L13.7037 2.08699L13.9944 1.23116C14.0504 1.06651 14.1563 0.923587 14.2974 0.822414C14.4384 0.72124 14.6075 0.666893 14.7809 0.666992Z" fill="#1E293B"/>
</svg>
